<svg width="615" height="96" viewBox="0 0 615 96" fill="none" xmlns="http://www.w3.org/2000/svg">
<path d="M115.979 69.7307C111.3 65.1974 108.96 58.8404 108.96 50.6596V20.5679H127.367V50.1125C127.367 54.1247 128.082 57.0427 129.512 58.8664C130.942 60.6902 133.008 61.6021 135.712 61.6021C138.416 61.6021 140.483 60.6902 141.913 58.8664C142.866 57.6506 143.581 44.8844 144.058 20.5679H162.152V50.6596C162.152 58.8404 159.813 65.1974 155.133 69.7307C150.453 74.2641 143.928 76.5307 135.556 76.5307C127.185 76.5307 120.659 74.2641 115.979 69.7307ZM197.874 61.5239H192.882V75.2801H174.476V20.5679H200.76C205.804 20.5679 210.197 21.4016 213.941 23.069C217.685 24.7364 220.571 27.1333 222.598 30.2597C224.626 33.3862 225.64 37.0336 225.64 41.2022C225.64 45.1102 224.756 48.5232 222.988 51.4412C221.221 54.3592 218.673 56.6779 215.345 58.3975L226.81 75.2801H207.155L197.874 61.5239ZM205.206 36.4735C203.958 35.3532 202.086 34.793 199.59 34.793H192.882V47.6113H199.59C202.086 47.6113 203.958 47.0512 205.206 45.9309C206.454 44.8106 207.077 43.2344 207.077 41.2022C207.077 39.17 206.454 37.5938 205.206 36.4735ZM287.646 51.9102C289.414 54.2029 290.298 56.9645 290.298 60.1952C290.298 64.989 288.322 68.7016 284.37 71.333C280.419 73.9644 274.699 75.2801 267.212 75.2801H236.482V20.5679H265.652C272.931 20.5679 278.43 21.8705 282.148 24.4759C285.865 27.0812 287.724 30.5463 287.724 34.8712C287.724 37.4245 287.087 39.7171 285.813 41.7493C284.539 43.7815 282.654 45.4228 280.159 46.6734C283.382 47.8719 285.878 49.6174 287.646 51.9102ZM254.576 33.4643V41.593H263.156C267.16 41.593 269.161 40.2382 269.161 37.5287C269.161 34.8191 267.16 33.4643 263.156 33.4643H254.576ZM271.735 58.0848C271.735 55.2189 269.707 53.786 265.652 53.786H254.576V62.3837H265.652C269.707 62.3837 271.735 60.9507 271.735 58.0848ZM337.875 65.7446H317.128L313.462 75.2801H294.744L318.61 20.5679H336.705L360.571 75.2801H341.541L337.875 65.7446ZM332.805 52.4573L327.502 38.7011L322.198 52.4573H332.805ZM421.251 20.5679V75.2801H406.12L385.374 50.4251V75.2801H367.435V20.5679H382.566L403.312 45.4229V20.5679H421.251ZM441.647 74.264C437.721 73.0656 434.614 71.4763 432.327 69.4963L435.836 61.6021C438.072 63.3737 440.815 64.8196 444.065 65.9399C447.315 67.0603 450.577 67.6204 453.853 67.6204C457.909 67.6204 460.938 66.9691 462.94 65.6664C464.941 64.3637 465.942 62.6442 465.942 60.5078C465.942 58.9446 465.383 57.655 464.265 56.6389C463.148 55.6228 461.731 54.8282 460.015 54.255C458.299 53.6818 455.959 53.0305 452.995 52.301C448.835 51.3109 445.469 50.3209 442.895 49.3309C440.321 48.3408 438.111 46.7907 436.265 44.6803C434.419 42.57 433.497 39.7172 433.497 36.1218C433.497 33.0996 434.315 30.3509 435.953 27.8759C437.591 25.4008 440.061 23.4337 443.363 21.9747C446.665 20.5157 450.707 19.7863 455.491 19.7863C458.819 19.7863 462.095 20.2031 465.318 21.0368C468.542 21.8705 471.324 23.069 473.664 24.6322L470.466 32.5264C468.074 31.1195 465.578 30.0513 462.979 29.3218C460.379 28.5923 457.857 28.2276 455.413 28.2276C451.409 28.2276 448.433 28.905 446.483 30.2597C444.533 31.6145 443.558 33.4122 443.558 35.6528C443.558 37.216 444.117 38.4926 445.235 39.4827C446.353 40.4727 447.77 41.2543 449.485 41.8275C451.201 42.4007 453.541 43.052 456.505 43.7815C460.561 44.7194 463.888 45.6964 466.488 46.7125C469.088 47.7286 471.311 49.2788 473.157 51.363C475.003 53.4473 475.926 56.2611 475.926 59.8044C475.926 62.8266 475.107 65.5622 473.469 68.0112C471.831 70.4602 469.348 72.4142 466.02 73.8732C462.693 75.3322 458.637 76.0617 453.853 76.0617C449.641 76.0617 445.573 75.4625 441.647 74.264ZM487.937 20.5679H511.803C517.627 20.5679 522.801 21.7012 527.324 23.9678C531.848 26.2345 535.358 29.439 537.854 33.5816C540.349 37.7241 541.597 42.5048 541.597 47.924C541.597 53.3431 540.349 58.1239 537.854 62.2664C535.358 66.4089 531.848 69.6135 527.324 71.8801C522.801 74.1468 517.627 75.2801 511.803 75.2801H487.937V20.5679ZM511.335 66.6825C515.339 66.6825 518.862 65.9139 521.904 64.3767C524.945 62.8396 527.285 60.6511 528.923 57.8113C530.561 54.9714 531.38 51.6757 531.38 47.924C531.38 44.1723 530.561 40.8765 528.923 38.0367C527.285 35.1969 524.945 33.0084 521.904 31.4712C518.862 29.9341 515.339 29.1655 511.335 29.1655H498.076V66.6825H511.335ZM573.107 52.3791L564.45 61.2894V75.2801H554.311V20.5679H564.45V48.6274L591.436 20.5679H602.823L579.893 45.0321L604.227 75.2801H592.372L573.107 52.3791Z" fill="white"/>
<rect width="96" height="96" rx="4" fill="#1991EB"/>
<path d="M71.2465 18.3434H24.2236C20.9907 18.3434 18.3457 20.9885 18.3457 24.2213V71.2442C18.3457 74.477 20.9907 77.1221 24.2236 77.1221H71.2465C74.4793 77.1221 77.1243 74.477 77.1243 71.2442V24.2213C77.1243 20.9885 74.4793 18.3434 71.2465 18.3434ZM71.2465 71.2442H24.2236V24.2213H71.2465V71.2442ZM65.3686 30.0992H50.674C47.4411 30.0992 44.7961 32.7442 44.7961 35.977V42.6778C43.0327 43.7064 41.8572 45.5579 41.8572 47.7327C41.8572 50.9656 44.5022 53.6106 47.735 53.6106C50.9678 53.6106 53.6129 50.9656 53.6129 47.7327C53.6129 45.5579 52.4373 43.677 50.674 42.6778V35.977H59.4907V59.4885H35.9793V35.977H41.8572V30.0992H30.1014V65.3663H65.3686V30.0992Z" fill="white"/>
</svg>
